<svg width="583" height="602" viewBox="0 0 583 602" fill="none" xmlns="http://www.w3.org/2000/svg">
<path d="M326.646 571.229L308.811 601.327H273.585L256.195 571.229L273.585 541.287H308.811L326.646 571.229ZM486.493 519.117L469.964 547.335H436.904L420.375 519.117L436.904 490.899H469.964L486.493 519.117ZM142.723 496.355L156.163 519.086L142.723 541.975H116.097L102.656 519.086L116.097 496.355H142.723ZM365.413 498.959L374.203 521.282L358.853 540.282L334.424 536.395L325.633 514.07L340.985 495.07L365.413 498.959ZM201.925 486.76L227.817 490.931L237.31 514.821L220.779 535.106L194.758 531.062L185.395 506.731L201.925 486.729V486.76ZM289.506 468.731L294.469 493.6L275.62 510.589L251.191 502.688L245.777 477.793L265.078 461.238L289.506 468.731ZM294.475 493.627L294.469 493.6L294.475 493.595V493.627ZM405.475 445.404L410.315 468.856L392.607 484.533L369.517 477.479L364.262 454.026L382.384 437.911L405.475 445.404ZM345.938 437.067L348.709 461.523L328.835 475.914L328.804 475.944L305.713 466.288L302.941 441.676L323.262 427.285L345.938 437.067ZM488.702 418.036L499.977 447.102L479.942 471.274L448.794 466.384L437.52 437.318L457.394 413.146H457.426L488.702 418.036ZM249.727 427.095L252.498 452.585L231.891 468.136L207.622 457.758L204.691 432.143L225.744 417.03L249.727 427.095ZM185.424 421.641V421.671L190.965 447.727L170.932 465.566L145.038 457.634L139.496 431.422L159.529 413.3L185.424 421.641ZM116.979 399.913L127.066 425.663L109.526 447.256L81.5947 443.086L71.7852 417.188L89.334 395.587L116.979 399.913ZM310.278 410.132L303.4 429.572L282.476 433.898L268.875 417.627L275.754 398.187L296.52 394.456L310.278 410.132ZM427.253 390.255L427.284 390.225L430.056 413.27L410.914 427.378L388.97 417.878L386.613 394.709L405.627 380.757L427.253 390.255ZM127.075 425.685L127.066 425.663L127.075 425.653V425.685ZM582.999 386.084L567.489 412.578H536.499L521.148 386.084L536.499 359.748H567.489L582.999 386.084ZM59.7783 386.086L45.4463 410.854H16.6543L2.03516 386.086L16.6543 361.473H45.4463L59.7783 386.086ZM245.816 381.194L238.5 401.766L217.024 405.65L202.246 389.377L209.985 369.092L231.325 364.483L245.816 381.194ZM370.562 381.352L363.971 399.914L343.938 404.083L330.496 388.532L337.663 369.688L357.249 366.084L370.562 381.352ZM238.491 401.793L238.5 401.766L238.523 401.762L238.491 401.793ZM173.136 366.238L175.461 387.12L158.357 399.629L138.77 391.29L136.445 370.408L153.548 357.742L173.136 366.238ZM481.088 362.036L485.771 383.92L468.794 398.907L447.169 391.853L442.359 369.968L459.463 354.981L481.088 362.036ZM295.254 340.497L302.962 360.595L289.394 377.212L267.959 373.731V373.701L260.188 354.104L273.629 337.144L295.254 340.497ZM127.628 320.463L133.487 348.242L112.148 366.96L85.1084 358.182H85.0771L78.9297 330.685L100.269 311.685L127.628 320.463ZM423.751 334.417L415.406 356.428L392.315 360.755L376.805 342.914L384.704 320.747L408.24 316.421L423.751 334.417ZM203.831 329.243L203.8 329.275L196.187 350.438L173.829 354.608L158.637 337.615L166.249 316.169L188.925 312.124L203.831 329.243ZM353.28 315.039L360.797 333.756V333.788L347.993 349.622L327.386 346.204L320.379 327.36L333.023 311.496L353.28 315.039ZM537.807 288.954L548.635 316.294V316.325L529.908 339.213L500.512 334.887L489.555 307.107L508.41 284.502L537.807 288.954ZM465.864 301.025L468.635 323.034L450.513 336.423L429.748 327.645L427.422 305.634L445.258 292.403L465.864 301.025ZM246.293 297.354L253.14 316.01L240.782 330.902L221.29 328.269L213.934 309.708L226.297 294.501L246.293 297.354ZM82.749 266.723L93.291 294.22L74.4365 316.825L45.04 312.373L34.2109 285.034L53.0654 261.989L82.749 266.723ZM153.266 273.966L155.59 295.977H155.654L137.66 308.925L117.18 300.303L114.25 278.136L132.658 264.905L153.266 273.966ZM226.297 294.501H226.291L226.322 294.471L226.297 294.501ZM358.439 260.798L358.471 260.83L365.383 278.827L352.993 293.876L333.502 291.242L325.953 272.681L338.692 257.318L358.439 260.798ZM497.743 243.145L504.018 270.485L482.678 289.643L455.638 280.863L449.363 253.522L470.703 234.366L497.743 243.145ZM424.366 263.745L416.754 285.347L393.95 289.392L379.172 271.958L386.784 250.796L409.588 246.752L424.366 263.745ZM206.473 258.258L198.574 280.581L175.165 284.907L159.527 267.349L167.426 245.184V245.151L190.835 240.825L206.473 258.258ZM259.738 242.863V242.895L266.555 261.707L254.133 277.258L233.781 274.53L226.137 255.468L239.291 239.478L259.738 242.863ZM314.864 224.052L322.795 243.648V243.679L309.194 260.609L287.728 257.286L279.988 237.534L293.43 220.571L314.864 224.052ZM123.576 246.471H123.544L123.552 246.463L123.576 246.471ZM135.838 209.317L140.521 231.201L123.552 246.463L101.791 239.416L97.1094 217.249L114.212 202.419L135.838 209.317ZM444.237 210.036L446.562 230.918H446.594L429.491 243.585L409.903 235.088L407.547 214.206L424.649 201.696L444.237 210.036ZM61.8516 215.086L46.3408 241.579H15.5107L0 215.086L15.5107 188.749H46.3408L61.8516 215.086ZM580.931 215.086L566.312 239.698H537.808L523.188 215.086L537.808 190.474H566.312L580.931 215.086ZM383.853 207.183H383.821L376.527 227.781L354.901 231.67L340.41 215.116L347.736 194.517L369.521 190.628L383.853 207.183ZM246.391 203.266L239.798 222.423L219.925 225.871L206.324 210.915L213.49 192.072V192.041L232.951 188.436L246.391 203.266ZM193.701 183.29L196.632 206.742L177.331 220.413L155.706 211.069L155.674 211.101L152.902 188.056L171.917 173.947L193.701 183.29ZM314.11 183.418L307.23 203.14L286.466 206.87L272.707 191.036L279.586 171.473L300.352 167.742L314.11 183.418ZM501.251 158.523L511.474 184.296L493.639 205.585L465.994 201.415L455.77 175.517L473.479 153.915L501.251 158.523ZM134.223 134.913L145.497 164.292L125.622 188.183L94.4736 183.574L83.1992 154.195L103.073 130.305L134.223 134.913ZM437.803 143.976L443.503 170.188L423.311 188.027L397.577 179.688L391.875 153.632L412.067 135.636L437.803 143.976ZM375.383 143.569L378.152 169.185L357.101 184.297L333.276 174.232L330.348 148.617L351.399 133.065L375.383 143.569ZM277.188 135.039L279.958 159.494L260.085 174.324L236.993 164.26L234.223 140.086L254.402 125.264L277.188 135.039ZM213.766 124.128L218.733 147.298L200.611 163.413H200.581L177.489 155.92L172.68 132.467L190.802 116.635L213.766 124.128ZM331.806 98.6367L337.221 123.406L318.207 140.399L293.778 132.468L288.363 107.698L307.378 90.7051L331.806 98.6367ZM254.402 125.264L254.383 125.256H254.415L254.402 125.264ZM388.089 70.2959L397.581 94.4688L381.052 114.755V114.786L355.029 110.741L345.539 86.4111L362.068 66.126L388.089 70.2959ZM162.455 82.207L145.925 110.426H113.024L96.3672 82.207L113.024 53.9893H145.925L162.455 82.207ZM248.589 64.9316L257.348 87.2549L241.995 106.256V106.224L217.567 102.336L208.809 79.8877L224.446 61.0439L248.589 64.9316ZM480.191 82.083L466.75 104.971H440.284L426.844 82.083L440.284 59.6338H466.75L480.191 82.083ZM326.801 29.9424L309.411 60.042H274.186L256.637 29.9424L274.186 0H309.411L326.801 29.9424Z" fill="#0C0B09"/>
</svg>
