<svg width="583" height="602" viewBox="0 0 583 602" fill="none" xmlns="http://www.w3.org/2000/svg">
<path d="M267.959 373.732L289.394 377.212L302.962 360.594L295.254 340.497L273.629 337.143L260.188 354.104L267.959 373.701V373.732Z" fill="#0C0B09"/>
<path d="M360.796 333.756L353.28 315.039L333.024 311.496L320.379 327.36L327.386 346.204L347.993 349.622L360.796 333.788V333.756Z" fill="#0C0B09"/>
<path d="M358.439 260.798L338.693 257.318L325.953 272.68L333.502 291.242L352.993 293.876L365.383 278.827L358.471 260.83L358.439 260.798Z" fill="#0C0B09"/>
<path d="M322.794 243.648L314.864 224.052L293.43 220.571L279.988 237.534L287.728 257.287L309.194 260.61L322.794 243.679V243.648Z" fill="#0C0B09"/>
<path d="M259.738 242.863L239.291 239.478L226.137 255.468L233.781 274.531L254.132 277.258L266.554 261.707L259.738 242.894V242.863Z" fill="#0C0B09"/>
<path d="M226.322 294.47L213.934 309.708L221.29 328.269L240.782 330.902L253.14 316.009L246.293 297.354L226.291 294.501L226.322 294.47Z" fill="#0C0B09"/>
<path d="M167.426 245.183L159.527 267.349L175.165 284.908L198.575 280.581L206.473 258.258L190.835 240.825L167.426 245.151V245.183Z" fill="#0C0B09"/>
<path d="M203.831 329.243L188.925 312.124L166.249 316.169L158.637 337.615L173.829 354.609L196.187 350.439L203.799 329.275L203.831 329.243Z" fill="#0C0B09"/>
<path d="M238.491 401.793L245.817 381.194L231.325 364.483L209.986 369.091L202.246 389.377L217.025 405.65L238.523 401.762L238.491 401.793Z" fill="#0C0B09"/>
<path d="M303.4 429.572L310.279 410.132L296.52 394.456L275.754 398.187L268.875 417.627L282.475 433.899L303.4 429.572Z" fill="#0C0B09"/>
<path d="M363.971 399.914L370.563 381.352L357.249 366.083L337.663 369.689L330.496 388.533L343.937 404.083L363.971 399.914Z" fill="#0C0B09"/>
<path d="M384.704 320.747L376.805 342.914L392.316 360.755L415.406 356.428L423.751 334.417L408.24 316.42L384.704 320.747Z" fill="#0C0B09"/>
<path d="M409.588 246.751L386.785 250.796L379.172 271.958L393.95 289.391L416.754 285.347L424.367 263.745L409.588 246.751Z" fill="#0C0B09"/>
<path d="M383.853 207.183L369.52 190.628L347.736 194.516L340.41 215.116L354.902 231.67L376.527 227.782L383.821 207.183H383.853Z" fill="#0C0B09"/>
<path d="M279.586 171.472L272.707 191.037L286.466 206.87L307.231 203.14L314.111 183.418L300.352 167.742L279.586 171.472Z" fill="#0C0B09"/>
<path d="M213.49 192.073L206.324 210.915L219.924 225.871L239.798 222.422L246.391 203.266L232.951 188.436L213.49 192.041V192.073Z" fill="#0C0B09"/>
<path d="M378.153 169.185L375.382 143.569L351.399 133.065L330.348 148.617L333.277 174.233L357.101 184.297L378.153 169.185Z" fill="#0C0B09"/>
<path d="M254.415 125.256L234.223 140.086L236.993 164.26L260.085 174.324L279.958 159.494L277.188 135.039L254.383 125.256H254.415Z" fill="#0C0B09"/>
<path d="M155.706 211.069L177.331 220.413L196.632 206.742L193.702 183.29L171.917 173.947L152.902 188.056L155.674 211.101L155.706 211.069Z" fill="#0C0B09"/>
<path d="M155.59 295.976L153.266 273.965L132.659 264.905L114.25 278.136L117.18 300.303L137.66 308.925L155.654 295.976H155.59Z" fill="#0C0B09"/>
<path d="M158.357 399.629L175.461 387.12L173.136 366.238L153.548 357.742L136.445 370.409L138.77 391.29L158.357 399.629Z" fill="#0C0B09"/>
<path d="M231.89 468.136L252.498 452.585L249.726 427.094L225.744 417.03L204.691 432.142L207.622 457.758L231.89 468.136Z" fill="#0C0B09"/>
<path d="M328.836 475.914L348.709 461.523L345.939 437.067L323.262 427.285L302.942 441.676L305.713 466.288L328.804 475.945L328.836 475.914Z" fill="#0C0B09"/>
<path d="M427.252 390.255L405.627 380.756L386.613 394.709L388.97 417.878L410.914 427.378L430.056 413.269L427.285 390.224L427.252 390.255Z" fill="#0C0B09"/>
<path d="M450.512 336.423L468.635 323.035L465.865 301.025L445.257 292.403L427.422 305.634L429.748 327.644L450.512 336.423Z" fill="#0C0B09"/>
<path d="M446.562 230.918L444.238 210.036L424.65 201.696L407.547 214.206L409.903 235.088L429.491 243.585L446.594 230.918H446.562Z" fill="#0C0B09"/>
<path d="M497.743 243.145L470.703 234.366L449.363 253.523L455.638 280.864L482.678 289.642L504.018 270.486L497.743 243.145Z" fill="#0C0B09"/>
<path d="M397.577 179.687L423.311 188.028L443.503 170.187L437.802 143.976L412.067 135.635L391.875 153.632L397.577 179.687Z" fill="#0C0B09"/>
<path d="M288.363 107.698L293.778 132.468L318.207 140.399L337.221 123.406L331.806 98.637L307.378 90.7046L288.363 107.698Z" fill="#0C0B09"/>
<path d="M200.611 163.413L218.734 147.297L213.766 124.128L190.802 116.634L172.68 132.467L177.489 155.92L200.581 163.413H200.611Z" fill="#0C0B09"/>
<path d="M123.544 246.471L140.52 231.201L135.838 209.317L114.212 202.418L97.1094 217.249L101.791 239.416L123.576 246.471H123.544Z" fill="#0C0B09"/>
<path d="M85.1085 358.181L112.149 366.96L133.487 348.242L127.628 320.463L100.269 311.684L78.9297 330.684L85.0767 358.181H85.1085Z" fill="#0C0B09"/>
<path d="M185.423 421.64L159.529 413.3L139.496 431.422L145.038 457.634L170.932 465.567L190.965 447.726L185.423 421.671V421.64Z" fill="#0C0B09"/>
<path d="M294.475 493.627L289.506 468.732L265.078 461.238L245.777 477.793L251.191 502.688L275.62 510.588L294.475 493.595V493.627Z" fill="#0C0B09"/>
<path d="M382.384 437.911L364.262 454.026L369.517 477.479L392.607 484.534L410.316 468.856L405.475 445.404L382.384 437.911Z" fill="#0C0B09"/>
<path d="M468.794 398.908L485.77 383.92L481.088 362.036L459.462 354.981L442.359 369.967L447.169 391.853L468.794 398.908Z" fill="#0C0B09"/>
<path d="M457.394 413.146L437.52 437.318L448.794 466.384L479.943 471.274L499.976 447.102L488.702 418.036L457.426 413.146H457.394Z" fill="#0C0B09"/>
<path d="M548.635 316.294L537.806 288.954L508.409 284.502L489.554 307.107L500.511 334.886L529.908 339.213L548.635 316.326V316.294Z" fill="#0C0B09"/>
<path d="M455.77 175.517L465.994 201.415L493.638 205.585L511.474 184.296L501.251 158.524L473.478 153.915L455.77 175.517Z" fill="#0C0B09"/>
<path d="M381.051 114.755L397.581 94.4689L388.089 70.2955L362.068 66.1255L345.539 86.4111L355.029 110.741L381.051 114.786V114.755Z" fill="#0C0B09"/>
<path d="M241.995 106.255L257.347 87.2554L248.588 64.9318L224.446 61.0439L208.809 79.8873L217.568 102.336L241.995 106.224V106.255Z" fill="#0C0B09"/>
<path d="M125.622 188.182L145.497 164.292L134.222 134.913L103.073 130.305L83.1992 154.195L94.474 183.574L125.622 188.182Z" fill="#0C0B09"/>
<path d="M34.2109 285.034L45.0397 312.373L74.4367 316.825L93.2915 294.22L82.7493 266.723L53.0657 261.989L34.2109 285.034Z" fill="#0C0B09"/>
<path d="M127.075 425.685L116.979 399.913L89.3342 395.586L71.7852 417.188L81.5949 443.086L109.527 447.256L127.075 425.653V425.685Z" fill="#0C0B09"/>
<path d="M201.925 486.728L185.395 506.732L194.758 531.062L220.779 535.107L237.309 514.821L227.818 490.93L201.925 486.76V486.728Z" fill="#0C0B09"/>
<path d="M340.985 495.07L325.633 514.071L334.424 536.394L358.853 540.282L374.204 521.282L365.413 498.959L340.985 495.07Z" fill="#0C0B09"/>
<path d="M273.585 541.287L256.195 571.229L273.585 601.328H308.811L326.646 571.229L308.811 541.287H273.585Z" fill="#0C0B09"/>
<path d="M436.904 490.899L420.375 519.117L436.904 547.335H469.964L486.493 519.117L469.964 490.899H436.904Z" fill="#0C0B09"/>
<path d="M567.489 359.748H536.499L521.148 386.084L536.499 412.578H567.489L582.999 386.084L567.489 359.748Z" fill="#0C0B09"/>
<path d="M566.313 239.698L580.931 215.086L566.313 190.474H537.807L523.188 215.086L537.807 239.698H566.313Z" fill="#0C0B09"/>
<path d="M466.75 104.971L480.192 82.0828L466.75 59.6338H440.284L426.844 82.0828L440.284 104.971H466.75Z" fill="#0C0B09"/>
<path d="M309.411 60.0417L326.801 29.9425L309.411 0H274.185L256.637 29.9425L274.185 60.0417H309.411Z" fill="#0C0B09"/>
<path d="M145.924 110.425L162.455 82.2073L145.924 53.9893H113.024L96.3672 82.2073L113.024 110.425H145.924Z" fill="#0C0B09"/>
<path d="M46.3409 241.579L61.8514 215.086L46.3409 188.749H15.5107L0 215.086L15.5107 241.579H46.3727H46.3409Z" fill="#0C0B09"/>
<path d="M16.654 361.473L2.03516 386.086L16.654 410.855H45.4458L59.7781 386.086L45.4458 361.473H16.654Z" fill="#0C0B09"/>
<path d="M116.097 496.355L102.656 519.086L116.097 541.975H142.722L156.164 519.086L142.722 496.355H116.097Z" fill="#0C0B09"/>
</svg>
